<?xml version="1.0" standalone="no"?><!DOCTYPE svg PUBLIC "-//W3C//DTD SVG 1.1//EN" "http://www.w3.org/Graphics/SVG/1.1/DTD/svg11.dtd"><svg t="1563267508026" class="icon" viewBox="0 0 1024 1024" version="1.1" xmlns="http://www.w3.org/2000/svg" p-id="1592" xmlns:xlink="http://www.w3.org/1999/xlink" width="48" height="48"><defs><style type="text/css"></style></defs><path d="M887.168 959.456V116.192L753.856 0 310.112 165.824v41.472L713.088 71.488v948.832h268.256v-60.864h-94.176zM165.728 699.68l211.296-42.272V550.176L165.728 605.76v93.92z m0 322.08h211.296V909.248l-211.296 15.328v97.184z m0-161.568l211.296-20.416v-107.04l-211.296 35.52v91.936z m0-324.096l211.296-58.208V366.56l-211.296 71.488v98.048z m445.664-276.928l-119.296-72.512L42.88 348.64 42.656 1024h59.168V381.312L437.92 270.624v749.92h173.504V259.168z m0 0" fill="#333333" p-id="1593"></path></svg>