<svg xmlns="http://www.w3.org/2000/svg" viewBox="0 0 129.05 149.01"><g><g><path d="M108.13 25.18v74.5l20.92 12.08V37.25l-20.92-12.07zM20.91 49.33l43.61-25.18V0L0 37.25v74.51l20.91-12.08V49.33z" fill="#183661"></path><path fill="#dd6b4d" d="M64.52 124.86L20.91 99.68 0 111.76l64.52 37.25 64.53-37.25-20.92-12.08-43.61 25.18z"></path><path fill="#183661" d="M52.15 67.36l12.37-7.14V36.07L31.23 55.28v38.44l20.92-12.07V67.36zM97.81 19.22L76.9 7.15v74.5l20.91 12.07v-74.5z"></path><path fill="#1c4b82" d="M52.15 81.65L31.23 93.72l33.29 19.22 33.29-19.22L76.9 81.65 64.52 88.8l-12.37-7.15z"></path></g></g></svg>
