<svg data-v-4d8f70e8="" version="1.0" xmlns="http://www.w3.org/2000/svg" xmlns:xlink="http://www.w3.org/1999/xlink" width="100%" height="100%" viewBox="0 0 240.000000 100.000000" preserveAspectRatio="xMidYMid meet" color-interpolation-filters="sRGB" class="el-tooltip" style="margin: auto;">  <g data-v-4d8f70e8="" fill="#fff" class="icon-text-wrapper icon-svg-group iconsvg" transform="translate(6.3344497680664,10.3344497680664)"><g class="iconsvg-imagesvg" transform="translate(83.36828231811523,0)"><rect fill="#fff" fill-opacity="0" stroke-width="2" x="0" y="0" width="60" height="47.634053367216"></rect> <svg filter="url(#colors1178010827)" x="0" y="0" width="60" height="47.634053367216" class="image-svg-svg"><svg xmlns="http://www.w3.org/2000/svg" viewBox="0 0 118.05 93.72"><defs><linearGradient id="a8374664e-f155-485e-a47b-e4208d818ca1" x1="28.32" y1="12.46" x2="92.36" y2="76.5" gradientUnits="userSpaceOnUse"><stop offset="0" stop-color="#ffb2c2"></stop><stop offset="1" stop-color="#f85e8a"></stop></linearGradient></defs><g style="isolation:isolate"><g><path d="M25.23 45.84c-5.61-7.48-12.38-4-11.5 8S23.76 87.7 45.64 93c27.19 6.54 69.73-30.83 69.88-52.56S90.73 6.53 75.74 2.67c-20-5.13-40.56-3.32-45.08 9.4-4.84 13.65 10.17 29.17 14.39 29.44 5.87.36 4.82-14.32 15.05-13.51 5.73.46 7.43 14.54 12.67 14.65 5.76.12 11.69-21.91 21.17-15.75 9.83 6.39-9.62 38.68-19.16 39.12S65.12 54 60.43 54c-5.25 0-5.69 15.21-14.94 15.21-5.87-.03-14.49-15.74-20.26-23.37z" fill="url(#a8374664e-f155-485e-a47b-e4208d818ca1)"></path><path d="M80.29 88.42c.87 4.33 6.35 1.92 3.47-1.42-1.65-1.9-3.95-1-3.47 1.42z" fill="#ab8eeb" style="mix-blend-mode:multiply"></path><path d="M16.52 32.08C17.6 30 3.42 14.68.29 22c-2.77 6.44 15.16 12.11 16.23 10.08z" fill="#f757af"></path><path d="M15.64 36.37c-2-1.52-6.64-2.8-9.53-1.08-2.45 1.45-1.75 7.56 6.81 5.12 5.54-1.58 3.67-3.31 2.72-4.04zM45.05 41.51c-4.22-.27-19.23-15.79-14.39-29.44a14.49 14.49 0 0 1 4.1-6c-9.68 3-16.23 7.83-16.63 12.7C17.08 31.46 40.88 49.89 48 40.09a3.4 3.4 0 0 1-2.95 1.42z" fill="#ffbd88" style="mix-blend-mode:multiply"></path><path d="M96.93 17.2C77.25 1.5 51.4 1 34.76 6.06a14.49 14.49 0 0 0-4.1 6c-4.84 13.66 10.17 29.18 14.39 29.45 5.87.36 4.82-14.32 15.05-13.51 5.73.46 7.43 14.54 12.67 14.65 5.76.12 11.69-21.91 21.17-15.75 9.83 6.39-9.62 38.68-19.16 39.12-4 .19-6.37-1.92-8.09-4.42 10.63 21.61 58.8-21.6 30.24-44.4z" fill="#ffbd88" style="mix-blend-mode:multiply"></path><path d="M15.07 61.28c-3.37 3.74-6 8.11-4.75 14 2 9.51 11 12.95 22.42 11.93C23.05 80.45 17.47 70 15.07 61.28z" fill="#f757af" style="mix-blend-mode:multiply"></path><path d="M81.55 62.24c-2.45 2.27-4.82 3.69-6.77 3.78-9.54.44-9.66-12-14.35-12-5.25 0-5.69 15.21-14.94 15.21-5.87 0-14.53-15.71-20.26-23.34a13.52 13.52 0 0 0-1-1.19c3.71 6.23-3.72 10.6-9.18 16.63 2.4 8.72 8 19.17 17.67 25.91 15.53-1.45 35.54-11.1 48.83-25z" fill="#f757af" style="mix-blend-mode:multiply"></path><path d="M115.3 43.07c-1.94 13-16.84 30.28-34.09 40.93 14.1 0 27-5.22 33.05-14.52 4.74-7.22 5-17.6 1.04-26.41z" fill="#ab8eeb" style="mix-blend-mode:multiply"></path><path d="M115.3 43.07a28.25 28.25 0 0 0-22.56-16.81 7.83 7.83 0 0 1 1.2.64c9.83 6.39-9.62 38.68-19.16 39.12S65.12 54 60.43 54c-5.25 0-5.69 15.21-14.94 15.21-3 0-6.78-4.16-10.49-9.23C45.65 76.63 64.3 84 81.21 84c17.25-10.65 32.15-27.93 34.09-40.93z" fill="#ab8eeb" style="mix-blend-mode:multiply"></path></g></g></svg></svg> <defs><filter id="colors1178010827"><feColorMatrix type="matrix" values="0 0 0 0 0.99609375  0 0 0 0 0.99609375  0 0 0 0 0.99609375  0 0 0 1 0" class="icon-fecolormatrix"></feColorMatrix></filter></defs></g> <g transform="translate(0,54.65297317504883)"><g class="tp-name iconsvg-namesvg" transform="translate(0,0)"><g><path d="M7.11-23.55L9.94-8.16L13.92-23.60L13.92-23.60Q14.10-24.29 14.46-24.58L14.46-24.58L14.46-24.58Q14.81-24.84 15.54-24.84L15.54-24.84L19.18-24.84L19.18-24.84Q19.91-24.84 20.26-24.56L20.26-24.56L20.26-24.56Q20.61-24.29 20.77-23.59L20.77-23.59L24.36-7.93L27.41-23.55L27.41-23.55Q27.55-24.28 27.90-24.56L27.90-24.56L27.90-24.56Q28.24-24.84 28.98-24.84L28.98-24.84L31.95-24.84L31.95-24.84Q33.21-24.84 33.21-23.87L33.21-23.87L33.21-23.87Q33.21-23.64 33.14-23.36L33.14-23.36L27.67-0.05L27.67-0.05Q27.50 0.65 27.16 0.92L27.16 0.92L27.16 0.92Q26.81 1.20 26.08 1.20L26.08 1.20L22.47 1.20L22.47 1.20Q21.75 1.20 21.39 0.92L21.39 0.92L21.39 0.92Q21.04 0.64 20.90-0.07L20.90-0.07L17.15-17.04L13.11-0.05L13.11-0.05Q12.93 0.65 12.60 0.92L12.60 0.92L12.60 0.92Q12.24 1.20 11.52 1.20L11.52 1.20L7.70 1.20L7.70 1.20Q6.97 1.20 6.62 0.92L6.62 0.92L6.62 0.92Q6.26 0.64 6.10-0.07L6.10-0.07L1.01-23.36L1.01-23.36Q0.94-23.64 0.94-23.87L0.94-23.87L0.94-23.87Q0.94-24.84 2.19-24.84L2.19-24.84L5.56-24.84L5.56-24.84Q6.87-24.84 7.11-23.55L7.11-23.55ZM55.89 1.20L55.89 1.20L38.11 1.20L38.11 1.20Q36.64 1.20 36.64-0.27L36.64-0.27L36.64-10.93L36.64-10.93Q36.64-12.40 38.11-12.40L38.11-12.40L48.14-12.40L48.14-12.40Q49.63-12.40 49.63-13.84L49.63-13.84L49.63-14.74L49.63-14.74Q49.63-16.17 48.14-16.17L48.14-16.17L38.11-16.17L38.11-16.17Q36.64-16.17 36.64-17.50L36.64-17.50L36.64-17.98L36.64-17.98Q36.64-19.30 38.11-19.30L38.11-19.30L55.89-19.30L55.89-19.30Q57.36-19.30 57.36-17.84L57.36-17.84L57.36-0.27L57.36-0.27Q57.36 1.20 55.89 1.20ZM48.14-9.50L48.14-9.50L45.61-9.50L45.61-9.50Q44.13-9.50 44.13-8.03L44.13-8.03L44.13-3.17L44.13-3.17Q44.13-1.70 45.61-1.70L45.61-1.70L48.14-1.70L48.14-1.70Q49.63-1.70 49.63-3.17L49.63-3.17L49.63-8.03L49.63-8.03Q49.63-9.50 48.14-9.50ZM72.90-14.70L72.90-14.70L72.90-3.40L72.90-3.40Q72.90-1.91 74.37-1.91L74.37-1.91L80.59-1.91L80.59-1.91Q82.06-1.91 82.06-0.58L82.06-0.58L82.06-0.11L82.06-0.11Q82.06 1.22 80.59 1.22L80.59 1.22L66.39 1.22L66.39 1.22Q64.92 1.22 64.92-0.25L64.92-0.25L64.92-14.70L64.92-14.70Q64.92-16.17 63.52-16.17L63.52-16.17L62.78-16.17L62.78-16.17Q61.38-16.17 61.38-17.50L61.38-17.50L61.38-17.98L61.38-17.98Q61.38-19.30 62.78-19.30L62.78-19.30L63.52-19.30L63.52-19.30Q64.78-19.30 64.92-20.51L64.92-20.51L64.92-20.51Q65.06-21.71 66.39-21.71L66.39-21.71L71.41-21.71L71.41-21.71Q72.76-21.71 72.90-20.51L72.90-20.51L72.90-20.51Q73.04-19.30 74.37-19.30L74.37-19.30L80.63-19.30L80.63-19.30Q82.10-19.30 82.10-17.98L82.10-17.98L82.10-17.50L82.10-17.50Q82.10-16.17 80.63-16.17L80.63-16.17L74.37-16.17L74.37-16.17Q72.90-16.17 72.90-14.70ZM94.59-5.59L94.59-5.59L94.59-3.38L94.59-3.38Q94.59-1.91 96.06-1.91L96.06-1.91L106.07-1.91L106.07-1.91Q107.56-1.91 107.56-0.58L107.56-0.58L107.56-0.11L107.56-0.11Q107.56 1.22 106.07 1.22L106.07 1.22L88.33 1.22L88.33 1.22Q86.86 1.22 86.86-0.25L86.86-0.25L86.86-17.84L86.86-17.84Q86.86-19.30 88.33-19.30L88.33-19.30L106.02-19.29L106.02-19.29Q106.89-19.29 107.21-18.97L107.21-18.97L107.21-18.97Q107.56-18.60 107.56-17.84L107.56-17.84L107.56-8.55L107.56-8.55Q107.56-7.06 106.09-7.06L106.09-7.06L96.06-7.06L96.06-7.06Q94.59-7.06 94.59-5.59ZM96.06-9.94L96.06-9.94L98.61-9.94L98.61-9.94Q100.08-9.94 100.08-11.43L100.08-11.43L100.08-14.93L100.08-14.93Q100.08-16.42 98.61-16.42L98.61-16.42L96.06-16.42L96.06-16.42Q94.59-16.42 94.59-14.93L94.59-14.93L94.59-11.43L94.59-11.43Q94.59-9.94 96.06-9.94ZM119.17-18.01L119.17-17.87L119.50-18.31L119.50-18.31Q119.96-18.90 120.37-19.09L120.37-19.09L120.37-19.09Q120.78-19.29 121.64-19.29L121.64-19.29L125.38-19.29L125.38-19.29Q126.85-19.29 126.85-17.96L126.85-17.96L126.85-17.48L126.85-17.48Q126.85-16.15 125.38-16.15L125.38-16.15L120.64-16.15L120.64-16.15Q119.17-16.15 119.17-14.69L119.17-14.69L119.17-0.27L119.17-0.27Q119.17 1.20 117.70 1.20L117.70 1.20L112.67 1.20L112.67 1.20Q111.19 1.20 111.19-0.27L111.19-0.27L111.19-17.82L111.19-17.82Q111.19-19.29 112.67-19.29L112.67-19.29L117.70-19.29L117.70-19.29Q119.17-19.29 119.17-18.01L119.17-18.01ZM137.80-17.98L137.80-17.68L138.13-18.24L138.13-18.24Q138.52-18.90 138.90-19.11L138.90-19.11L138.90-19.11Q139.28-19.32 140.06-19.32L140.06-19.32L146.49-19.32L146.49-19.32Q147.97-19.30 147.97-17.99L147.97-17.99L147.97-17.78L148.50-18.33L148.50-18.33Q149.19-19.06 149.79-19.22L149.79-19.22L149.79-19.22Q150.11-19.32 150.96-19.32L150.96-19.32L157.14-19.32L157.14-19.32Q158.61-19.32 158.61-17.85L158.61-17.85L158.61-0.27L158.61-0.27Q158.61 1.20 157.14 1.20L157.14 1.20L152.84 1.20L152.84 1.20Q151.35 1.20 151.35-0.27L151.35-0.27L151.35-14.70L151.35-14.70Q151.35-16.19 149.99-16.19L149.99-16.19L149.33-16.19L149.33-16.19Q147.97-16.19 147.97-14.70L147.97-14.70L147.97-0.27L147.97-0.27Q147.97 1.20 146.50 1.20L146.50 1.20L142.43 1.20L142.43 1.20Q140.97 1.20 140.97-0.27L140.97-0.27L140.97-14.70L140.97-14.70Q140.97-16.19 139.64-16.19L139.64-16.19L139.13-16.19L139.13-16.19Q137.80-16.19 137.80-14.70L137.80-14.70L137.80-0.27L137.80-0.27Q137.80 1.20 136.31 1.20L136.31 1.20L132.03 1.20L132.03 1.20Q130.54 1.20 130.54-0.27L130.54-0.27L130.54-17.85L130.54-17.85Q130.54-19.32 132.03-19.32L132.03-19.32L136.31-19.32L136.31-19.32Q137.80-19.32 137.80-17.98L137.80-17.98ZM182.42 1.20L182.42 1.20L164.64 1.20L164.64 1.20Q163.17 1.20 163.17-0.27L163.17-0.27L163.17-10.93L163.17-10.93Q163.17-12.40 164.64-12.40L164.64-12.40L174.67-12.40L174.67-12.40Q176.16-12.40 176.16-13.84L176.16-13.84L176.16-14.74L176.16-14.74Q176.16-16.17 174.67-16.17L174.67-16.17L164.64-16.17L164.64-16.17Q163.17-16.17 163.17-17.50L163.17-17.50L163.17-17.98L163.17-17.98Q163.17-19.30 164.64-19.30L164.64-19.30L182.42-19.30L182.42-19.30Q183.89-19.30 183.89-17.84L183.89-17.84L183.89-0.27L183.89-0.27Q183.89 1.20 182.42 1.20ZM174.67-9.50L174.67-9.50L172.14-9.50L172.14-9.50Q170.66-9.50 170.66-8.03L170.66-8.03L170.66-3.17L170.66-3.17Q170.66-1.70 172.14-1.70L172.14-1.70L174.67-1.70L174.67-1.70Q176.16-1.70 176.16-3.17L176.16-3.17L176.16-8.03L176.16-8.03Q176.16-9.50 174.67-9.50ZM195.98-18.01L195.98-17.87L196.31-18.31L196.31-18.31Q196.77-18.90 197.18-19.09L197.18-19.09L197.18-19.09Q197.59-19.29 198.45-19.29L198.45-19.29L202.19-19.29L202.19-19.29Q203.65-19.29 203.65-17.96L203.65-17.96L203.65-17.48L203.65-17.48Q203.65-16.15 202.19-16.15L202.19-16.15L197.44-16.15L197.44-16.15Q195.98-16.15 195.98-14.69L195.98-14.69L195.98-0.27L195.98-0.27Q195.98 1.20 194.51 1.20L194.51 1.20L189.48 1.20L189.48 1.20Q188.00 1.20 188.00-0.27L188.00-0.27L188.00-17.82L188.00-17.82Q188.00-19.29 189.48-19.29L189.48-19.29L194.51-19.29L194.51-19.29Q195.98-19.29 195.98-18.01L195.98-18.01ZM215.19-23.41L215.19-11.43L219.86-18.21L219.86-18.21Q220.34-18.90 220.73-19.09L220.73-19.09L220.73-19.09Q221.12-19.30 221.95-19.30L221.95-19.30L226.23-19.30L226.23-19.30Q227.15-19.30 227.15-18.54L227.15-18.54L227.15-18.54Q227.15-18.33 226.92-17.99L226.92-17.99L222.76-11.89L222.76-11.89Q222.39-11.34 222.39-10.97L222.39-10.97L222.39-10.97Q222.39-10.74 222.64-10.23L222.64-10.23L227.51-0.21L227.51-0.21Q227.68 0.16 227.68 0.39L227.68 0.39L227.68 0.39Q227.68 1.20 226.62 1.20L226.62 1.20L222.27 1.20L222.27 1.20Q221.51 1.20 221.14 0.97L221.14 0.97L221.14 0.97Q220.78 0.74 220.45 0.07L220.45 0.07L215.19-10.70L215.19-0.27L215.19-0.27Q215.19 1.20 213.72 1.20L213.72 1.20L208.93 1.20L208.93 1.20Q207.46 1.20 207.46-0.27L207.46-0.27L207.46-23.41L207.46-23.41Q207.46-24.88 208.93-24.88L208.93-24.88L213.72-24.88L213.72-24.88Q215.19-24.88 215.19-23.41L215.19-23.41Z" transform="translate(-0.93776444341872, 24.877298253712)"></path></g> <!----> <!----> <!----> <!----> <!----> <!----> <!----></g> </g></g></svg>