<?xml version="1.0" standalone="no"?><!DOCTYPE svg PUBLIC "-//W3C//DTD SVG 1.1//EN" "http://www.w3.org/Graphics/SVG/1.1/DTD/svg11.dtd"><svg t="1563328028589" class="icon" viewBox="0 0 1024 1024" version="1.1" xmlns="http://www.w3.org/2000/svg" p-id="1323" xmlns:xlink="http://www.w3.org/1999/xlink" width="48" height="48"><defs><style type="text/css"></style></defs><path d="M811.65452 173.037514v511.96564l143.7627 83.014026V255.98282l-143.7627-82.945306zM212.27676 338.996846l299.68888-173.037514V0L68.58278 255.98282v512.03436l143.69398-83.014026V338.996846z" fill="#ffffff" p-id="1324"></path><path d="M511.96564 858.040668L212.27676 685.003154 68.58278 768.01718l443.38286 255.98282 443.45158-255.98282-143.7627-83.014026-299.68888 173.037514z" fill="#ffffff" p-id="1325"></path><path d="M426.958728 462.899403l85.006912-49.066237V247.873834L283.196027 379.885377v264.160526l143.762701-82.945306V462.899403z m313.776525-330.81914L597.041272 49.134957v511.96564l143.693981 82.945306v-511.96564z" fill="#ffffff" p-id="1326"></path><path d="M426.958728 561.100597L283.196027 644.045903l228.769613 132.080263 228.769613-132.080263L597.041272 561.100597 511.96564 610.235555l-85.006912-49.134958z" fill="#ffffff" p-id="1327"></path></svg>